<svg width="443" height="252" viewBox="0 0 443 252" fill="none" xmlns="http://www.w3.org/2000/svg">
<path d="M125.796 53.544C138.519 53.5631 151.012 56.9302 162.021 63.307C173.031 69.6838 182.168 78.8456 188.515 89.872L227.156 51.2226C211.771 30.3506 190.32 14.7353 165.73 6.5083C141.14 -1.71872 114.611 -2.15653 89.7633 5.25465C64.9157 12.6658 42.9606 27.5648 26.8954 47.9177C10.8302 68.2707 1.43764 93.0856 0 118.975H53.6857C55.4389 101.064 63.792 84.4444 77.1203 72.3507C90.4485 60.257 107.799 53.5534 125.796 53.544Z" fill="#F6B215"/>
<path d="M439.716 172.882C439.814 172.466 439.912 172.067 440.001 171.627C440.262 170.471 440.506 169.306 440.726 168.133C440.726 167.937 440.808 167.742 440.84 167.546C441.97 161.429 442.54 155.221 442.543 149C442.543 147.493 442.494 145.994 442.429 144.511C442.429 143.876 442.363 143.249 442.323 142.622C442.282 141.995 442.217 141.139 442.152 140.398C441.994 138.508 441.791 136.63 441.541 134.762C441.537 134.748 441.537 134.734 441.541 134.721C438.841 115.379 430.695 97.2047 418.054 82.3193C405.412 67.4338 388.797 56.4518 370.148 50.6553C351.499 44.8589 331.586 44.4873 312.734 49.584C293.881 54.6807 276.868 65.0352 263.68 79.4387L263.525 79.6098C262.963 80.2207 262.426 80.856 261.896 81.4913L182.227 172.662C162.581 194.434 144.107 199.093 125.805 198.393C88.2548 196.967 57.2538 169.632 53.7187 132.97H0.0249023C1.35252 157.086 9.5874 180.311 23.7478 199.877C37.9081 219.443 57.3965 234.524 79.8896 243.322C102.383 252.12 126.931 254.264 150.609 249.498C174.286 244.732 196.094 233.258 213.432 216.443L213.521 216.353L213.782 216.109L223.361 205.626L241.077 186.232H241.036L302.68 118.715L304.309 116.907L305.938 115.123C311.761 109.341 318.975 105.156 326.885 102.973C334.796 100.79 343.135 100.681 351.1 102.658C359.064 104.635 366.385 108.63 372.356 114.259C378.328 119.888 382.748 126.96 385.192 134.794C385.24 134.933 385.273 135.079 385.314 135.218C385.68 136.431 385.99 137.661 386.267 138.916C386.356 139.356 386.438 139.804 386.519 140.252C386.715 141.27 386.87 142.304 387 143.339C387.049 143.778 387.106 144.218 387.146 144.658C387.277 146.108 387.366 147.566 387.366 149.057C387.367 153.989 386.598 158.892 385.086 163.588C384.898 164.182 384.678 164.761 384.467 165.347C384.255 165.934 384.035 166.561 383.791 167.155C383.546 167.75 383.326 168.198 383.098 168.711C382.87 169.224 382.528 169.974 382.219 170.585C381.982 171.041 381.73 171.481 381.485 171.929C381.127 172.58 380.777 173.232 380.394 173.859C380.158 174.25 379.897 174.625 379.645 175.007C379.221 175.659 378.83 176.319 378.341 176.954C372.513 185.068 364.287 191.149 354.821 194.344C345.355 197.538 335.126 197.683 325.573 194.76C316.02 191.837 307.625 185.992 301.567 178.048C295.51 170.103 292.096 160.46 291.806 150.474L248.872 197.774C258.575 215.836 273.451 230.589 291.593 240.142C309.735 249.696 330.316 253.615 350.699 251.397C371.082 249.178 390.339 240.924 406.001 227.692C421.663 214.459 433.017 196.852 438.608 177.125C438.608 177.125 438.608 177.125 438.608 177.076C438.698 176.751 438.78 176.417 438.869 176.083C439.195 174.983 439.464 173.94 439.716 172.882Z" fill="white"/>
</svg>
